<?xml version="1.0" encoding="utf-8" standalone="no"?>
<!DOCTYPE svg PUBLIC "-//W3C//DTD SVG 1.1//EN"
  "http://www.w3.org/Graphics/SVG/1.1/DTD/svg11.dtd">
<svg xmlns:xlink="http://www.w3.org/1999/xlink" width="712.380937pt" height="279.99625pt" viewBox="0 0 712.380937 279.99625" xmlns="http://www.w3.org/2000/svg" version="1.1">
 <metadata>
  <rdf:RDF xmlns:dc="http://purl.org/dc/elements/1.1/" xmlns:cc="http://creativecommons.org/ns#" xmlns:rdf="http://www.w3.org/1999/02/22-rdf-syntax-ns#">
   <cc:Work>
    <dc:type rdf:resource="http://purl.org/dc/dcmitype/StillImage"/>
    <dc:date>2026-02-27T10:14:41.256637</dc:date>
    <dc:format>image/svg+xml</dc:format>
    <dc:creator>
     <cc:Agent>
      <dc:title>Matplotlib v3.10.0, https://matplotlib.org/</dc:title>
     </cc:Agent>
    </dc:creator>
   </cc:Work>
  </rdf:RDF>
 </metadata>
 <defs>
  <style type="text/css">*{stroke-linejoin: round; stroke-linecap: butt}</style>
 </defs>
 <g id="figure_1">
  <g id="patch_1">
   <path d="M 0 279.99625 
L 712.380937 279.99625 
L 712.380937 0 
L 0 0 
z
" style="fill: #ffffff"/>
  </g>
  <g id="axes_1">
   <g id="patch_2">
    <path d="M 52.160938 242.44 
L 350.580938 242.44 
L 350.580938 7.2 
L 52.160938 7.2 
z
" style="fill: #ffffff"/>
   </g>
   <g id="FillBetweenPolyCollection_1">
    <defs>
     <path id="m174f586ead" d="M 65.725483 -83.553733 
L 65.725483 -83.553733 
L 71.49763 -83.553733 
L 77.269777 -83.553733 
L 83.041924 -83.553733 
L 88.814071 -83.553733 
L 94.586218 -83.553733 
L 100.358365 -83.553733 
L 106.130512 -83.553733 
L 111.902659 -83.553733 
L 117.674806 -83.553733 
L 123.446953 -83.553733 
L 129.2191 -83.553733 
L 134.991247 -83.553733 
L 140.763394 -83.553733 
L 146.535541 -83.553733 
L 152.307688 -83.553733 
L 158.079835 -83.553733 
L 163.851982 -83.553733 
L 169.624129 -83.553733 
L 175.396276 -79.42076 
L 181.168423 -63.396739 
L 186.94057 -53.771786 
L 192.712717 -93.169599 
L 198.484864 -228.323833 
L 204.257011 -228.323833 
L 210.029158 -198.610836 
L 215.801305 -153.138613 
L 221.573452 -109.799267 
L 227.345599 -140.063589 
L 233.117746 -162.34936 
L 238.889893 -228.323833 
L 244.66204 -228.323833 
L 250.434187 -228.323833 
L 256.206334 -122.517273 
L 261.978481 -153.138613 
L 267.750628 -129.444016 
L 273.522775 -136.807611 
L 279.294922 -61.691652 
L 285.067069 -83.553733 
L 290.839216 -83.553733 
L 296.611363 -83.553733 
L 302.38351 -83.553733 
L 308.155657 -83.553733 
L 313.927804 -83.553733 
L 319.699951 -83.553733 
L 325.472098 -83.553733 
L 331.244245 -83.553733 
L 337.016392 -83.553733 
L 337.016392 -83.553733 
L 337.016392 -83.553733 
L 331.244245 -83.553733 
L 325.472098 -83.553733 
L 319.699951 -83.553733 
L 313.927804 -83.553733 
L 308.155657 -83.553733 
L 302.38351 -83.553733 
L 296.611363 -83.553733 
L 290.839216 -83.553733 
L 285.067069 -83.553733 
L 279.294922 -195.897127 
L 273.522775 -256.503136 
L 267.750628 -254.8186 
L 261.978481 -258.268397 
L 256.206334 -252.697212 
L 250.434187 -228.323833 
L 244.66204 -228.323833 
L 238.889893 -228.323833 
L 233.117746 -258.10578 
L 227.345599 -255.760528 
L 221.573452 -247.318955 
L 215.801305 -258.268397 
L 210.029158 -248.988699 
L 204.257011 -228.323833 
L 198.484864 -228.323833 
L 192.712717 -236.804229 
L 186.94057 -149.528206 
L 181.168423 -117.986668 
L 175.396276 -89.496333 
L 169.624129 -83.553733 
L 163.851982 -83.553733 
L 158.079835 -83.553733 
L 152.307688 -83.553733 
L 146.535541 -83.553733 
L 140.763394 -83.553733 
L 134.991247 -83.553733 
L 129.2191 -83.553733 
L 123.446953 -83.553733 
L 117.674806 -83.553733 
L 111.902659 -83.553733 
L 106.130512 -83.553733 
L 100.358365 -83.553733 
L 94.586218 -83.553733 
L 88.814071 -83.553733 
L 83.041924 -83.553733 
L 77.269777 -83.553733 
L 71.49763 -83.553733 
L 65.725483 -83.553733 
z
" style="stroke: #1f77b4; stroke-opacity: 0.25"/>
    </defs>
    <g clip-path="url(#p6d20d16f98)">
     <use xlink:href="#m174f586ead" x="0" y="279.99625" style="fill: #1f77b4; fill-opacity: 0.25; stroke: #1f77b4; stroke-opacity: 0.25"/>
    </g>
   </g>
   <g id="FillBetweenPolyCollection_2">
    <defs>
     <path id="m91dab51774" d="M 65.725483 -83.553733 
L 65.725483 -83.553733 
L 71.49763 -262.103523 
L 77.269777 -262.103523 
L 83.041924 -262.103523 
L 88.814071 -262.103523 
L 94.586218 -154.330226 
L 100.358365 -262.103523 
L 106.130512 -234.75806 
L 111.902659 -83.553733 
L 117.674806 -83.553733 
L 123.446953 -83.553733 
L 129.2191 -83.553733 
L 134.991247 -250.843626 
L 140.763394 -83.553733 
L 146.535541 -83.553733 
L 152.307688 -207.412596 
L 158.079835 -83.553733 
L 163.851982 -83.553733 
L 169.624129 -83.553733 
L 175.396276 -83.553733 
L 181.168423 -83.553733 
L 186.94057 -83.553733 
L 192.712717 -83.553733 
L 198.484864 -83.553733 
L 204.257011 -83.553733 
L 210.029158 -83.553733 
L 215.801305 -83.553733 
L 221.573452 -83.553733 
L 227.345599 -83.553733 
L 233.117746 -83.553733 
L 238.889893 -83.553733 
L 244.66204 -83.553733 
L 250.434187 -83.553733 
L 256.206334 -83.553733 
L 261.978481 -83.553733 
L 267.750628 -83.553733 
L 273.522775 -83.553733 
L 279.294922 -48.248977 
L 285.067069 -58.702633 
L 290.839216 -83.553733 
L 296.611363 -83.553733 
L 302.38351 -262.103523 
L 308.155657 -83.553733 
L 313.927804 -83.553733 
L 319.699951 -188.109916 
L 325.472098 -262.103523 
L 331.244245 -83.553733 
L 337.016392 -83.553733 
L 337.016392 -83.553733 
L 337.016392 -83.553733 
L 331.244245 -83.553733 
L 325.472098 -262.103523 
L 319.699951 -188.109916 
L 313.927804 -83.553733 
L 308.155657 -83.553733 
L 302.38351 -262.103523 
L 296.611363 -83.553733 
L 290.839216 -83.553733 
L 285.067069 -185.816623 
L 279.294922 -152.336575 
L 273.522775 -83.553733 
L 267.750628 -83.553733 
L 261.978481 -83.553733 
L 256.206334 -83.553733 
L 250.434187 -83.553733 
L 244.66204 -83.553733 
L 238.889893 -83.553733 
L 233.117746 -83.553733 
L 227.345599 -83.553733 
L 221.573452 -83.553733 
L 215.801305 -83.553733 
L 210.029158 -83.553733 
L 204.257011 -83.553733 
L 198.484864 -83.553733 
L 192.712717 -83.553733 
L 186.94057 -83.553733 
L 181.168423 -83.553733 
L 175.396276 -83.553733 
L 169.624129 -83.553733 
L 163.851982 -83.553733 
L 158.079835 -83.553733 
L 152.307688 -207.412596 
L 146.535541 -83.553733 
L 140.763394 -83.553733 
L 134.991247 -250.843626 
L 129.2191 -83.553733 
L 123.446953 -83.553733 
L 117.674806 -83.553733 
L 111.902659 -83.553733 
L 106.130512 -234.75806 
L 100.358365 -262.103523 
L 94.586218 -154.330226 
L 88.814071 -262.103523 
L 83.041924 -262.103523 
L 77.269777 -262.103523 
L 71.49763 -262.103523 
L 65.725483 -83.553733 
z
" style="stroke: #ff7f0e; stroke-opacity: 0.25"/>
    </defs>
    <g clip-path="url(#p6d20d16f98)">
     <use xlink:href="#m91dab51774" x="0" y="279.99625" style="fill: #ff7f0e; fill-opacity: 0.25; stroke: #ff7f0e; stroke-opacity: 0.25"/>
    </g>
   </g>
   <g id="matplotlib.axis_1">
    <g id="xtick_1">
     <g id="line2d_1">
      <path d="M 65.725483 242.44 
L 65.725483 7.2 
" clip-path="url(#p6d20d16f98)" style="fill: none; stroke: #b0b0b0; stroke-width: 0.8; stroke-linecap: square"/>
     </g>
     <g id="line2d_2">
      <defs>
       <path id="m95621ed9f4" d="M 0 0 
L 0 3.5 
" style="stroke: #000000; stroke-width: 0.8"/>
      </defs>
      <g>
       <use xlink:href="#m95621ed9f4" x="65.725483" y="242.44" style="stroke: #000000; stroke-width: 0.8"/>
      </g>
     </g>
     <g id="text_1">
      <!-- 0 -->
      <g transform="translate(62.544233 257.038437) scale(0.1 -0.1)">
       <defs>
        <path id="DejaVuSans-30" d="M 2034 4250 
Q 1547 4250 1301 3770 
Q 1056 3291 1056 2328 
Q 1056 1369 1301 889 
Q 1547 409 2034 409 
Q 2525 409 2770 889 
Q 3016 1369 3016 2328 
Q 3016 3291 2770 3770 
Q 2525 4250 2034 4250 
z
M 2034 4750 
Q 2819 4750 3233 4129 
Q 3647 3509 3647 2328 
Q 3647 1150 3233 529 
Q 2819 -91 2034 -91 
Q 1250 -91 836 529 
Q 422 1150 422 2328 
Q 422 3509 836 4129 
Q 1250 4750 2034 4750 
z
" transform="scale(0.015625)"/>
       </defs>
       <use xlink:href="#DejaVuSans-30"/>
      </g>
     </g>
    </g>
    <g id="xtick_2">
     <g id="line2d_3">
      <path d="M 123.446953 242.44 
L 123.446953 7.2 
" clip-path="url(#p6d20d16f98)" style="fill: none; stroke: #b0b0b0; stroke-width: 0.8; stroke-linecap: square"/>
     </g>
     <g id="line2d_4">
      <g>
       <use xlink:href="#m95621ed9f4" x="123.446953" y="242.44" style="stroke: #000000; stroke-width: 0.8"/>
      </g>
     </g>
     <g id="text_2">
      <!-- 10 -->
      <g transform="translate(117.084453 257.038437) scale(0.1 -0.1)">
       <defs>
        <path id="DejaVuSans-31" d="M 794 531 
L 1825 531 
L 1825 4091 
L 703 3866 
L 703 4441 
L 1819 4666 
L 2450 4666 
L 2450 531 
L 3481 531 
L 3481 0 
L 794 0 
L 794 531 
z
" transform="scale(0.015625)"/>
       </defs>
       <use xlink:href="#DejaVuSans-31"/>
       <use xlink:href="#DejaVuSans-30" transform="translate(63.623047 0)"/>
      </g>
     </g>
    </g>
    <g id="xtick_3">
     <g id="line2d_5">
      <path d="M 181.168423 242.44 
L 181.168423 7.2 
" clip-path="url(#p6d20d16f98)" style="fill: none; stroke: #b0b0b0; stroke-width: 0.8; stroke-linecap: square"/>
     </g>
     <g id="line2d_6">
      <g>
       <use xlink:href="#m95621ed9f4" x="181.168423" y="242.44" style="stroke: #000000; stroke-width: 0.8"/>
      </g>
     </g>
     <g id="text_3">
      <!-- 20 -->
      <g transform="translate(174.805923 257.038437) scale(0.1 -0.1)">
       <defs>
        <path id="DejaVuSans-32" d="M 1228 531 
L 3431 531 
L 3431 0 
L 469 0 
L 469 531 
Q 828 903 1448 1529 
Q 2069 2156 2228 2338 
Q 2531 2678 2651 2914 
Q 2772 3150 2772 3378 
Q 2772 3750 2511 3984 
Q 2250 4219 1831 4219 
Q 1534 4219 1204 4116 
Q 875 4013 500 3803 
L 500 4441 
Q 881 4594 1212 4672 
Q 1544 4750 1819 4750 
Q 2544 4750 2975 4387 
Q 3406 4025 3406 3419 
Q 3406 3131 3298 2873 
Q 3191 2616 2906 2266 
Q 2828 2175 2409 1742 
Q 1991 1309 1228 531 
z
" transform="scale(0.015625)"/>
       </defs>
       <use xlink:href="#DejaVuSans-32"/>
       <use xlink:href="#DejaVuSans-30" transform="translate(63.623047 0)"/>
      </g>
     </g>
    </g>
    <g id="xtick_4">
     <g id="line2d_7">
      <path d="M 238.889893 242.44 
L 238.889893 7.2 
" clip-path="url(#p6d20d16f98)" style="fill: none; stroke: #b0b0b0; stroke-width: 0.8; stroke-linecap: square"/>
     </g>
     <g id="line2d_8">
      <g>
       <use xlink:href="#m95621ed9f4" x="238.889893" y="242.44" style="stroke: #000000; stroke-width: 0.8"/>
      </g>
     </g>
     <g id="text_4">
      <!-- 30 -->
      <g transform="translate(232.527393 257.038437) scale(0.1 -0.1)">
       <defs>
        <path id="DejaVuSans-33" d="M 2597 2516 
Q 3050 2419 3304 2112 
Q 3559 1806 3559 1356 
Q 3559 666 3084 287 
Q 2609 -91 1734 -91 
Q 1441 -91 1130 -33 
Q 819 25 488 141 
L 488 750 
Q 750 597 1062 519 
Q 1375 441 1716 441 
Q 2309 441 2620 675 
Q 2931 909 2931 1356 
Q 2931 1769 2642 2001 
Q 2353 2234 1838 2234 
L 1294 2234 
L 1294 2753 
L 1863 2753 
Q 2328 2753 2575 2939 
Q 2822 3125 2822 3475 
Q 2822 3834 2567 4026 
Q 2313 4219 1838 4219 
Q 1578 4219 1281 4162 
Q 984 4106 628 3988 
L 628 4550 
Q 988 4650 1302 4700 
Q 1616 4750 1894 4750 
Q 2613 4750 3031 4423 
Q 3450 4097 3450 3541 
Q 3450 3153 3228 2886 
Q 3006 2619 2597 2516 
z
" transform="scale(0.015625)"/>
       </defs>
       <use xlink:href="#DejaVuSans-33"/>
       <use xlink:href="#DejaVuSans-30" transform="translate(63.623047 0)"/>
      </g>
     </g>
    </g>
    <g id="xtick_5">
     <g id="line2d_9">
      <path d="M 296.611363 242.44 
L 296.611363 7.2 
" clip-path="url(#p6d20d16f98)" style="fill: none; stroke: #b0b0b0; stroke-width: 0.8; stroke-linecap: square"/>
     </g>
     <g id="line2d_10">
      <g>
       <use xlink:href="#m95621ed9f4" x="296.611363" y="242.44" style="stroke: #000000; stroke-width: 0.8"/>
      </g>
     </g>
     <g id="text_5">
      <!-- 40 -->
      <g transform="translate(290.248863 257.038437) scale(0.1 -0.1)">
       <defs>
        <path id="DejaVuSans-34" d="M 2419 4116 
L 825 1625 
L 2419 1625 
L 2419 4116 
z
M 2253 4666 
L 3047 4666 
L 3047 1625 
L 3713 1625 
L 3713 1100 
L 3047 1100 
L 3047 0 
L 2419 0 
L 2419 1100 
L 313 1100 
L 313 1709 
L 2253 4666 
z
" transform="scale(0.015625)"/>
       </defs>
       <use xlink:href="#DejaVuSans-34"/>
       <use xlink:href="#DejaVuSans-30" transform="translate(63.623047 0)"/>
      </g>
     </g>
    </g>
    <g id="text_6">
     <!-- Time (hours) -->
     <g transform="translate(169.589688 270.716562) scale(0.1 -0.1)">
      <defs>
       <path id="DejaVuSans-54" d="M -19 4666 
L 3928 4666 
L 3928 4134 
L 2272 4134 
L 2272 0 
L 1638 0 
L 1638 4134 
L -19 4134 
L -19 4666 
z
" transform="scale(0.015625)"/>
       <path id="DejaVuSans-69" d="M 603 3500 
L 1178 3500 
L 1178 0 
L 603 0 
L 603 3500 
z
M 603 4863 
L 1178 4863 
L 1178 4134 
L 603 4134 
L 603 4863 
z
" transform="scale(0.015625)"/>
       <path id="DejaVuSans-6d" d="M 3328 2828 
Q 3544 3216 3844 3400 
Q 4144 3584 4550 3584 
Q 5097 3584 5394 3201 
Q 5691 2819 5691 2113 
L 5691 0 
L 5113 0 
L 5113 2094 
Q 5113 2597 4934 2840 
Q 4756 3084 4391 3084 
Q 3944 3084 3684 2787 
Q 3425 2491 3425 1978 
L 3425 0 
L 2847 0 
L 2847 2094 
Q 2847 2600 2669 2842 
Q 2491 3084 2119 3084 
Q 1678 3084 1418 2786 
Q 1159 2488 1159 1978 
L 1159 0 
L 581 0 
L 581 3500 
L 1159 3500 
L 1159 2956 
Q 1356 3278 1631 3431 
Q 1906 3584 2284 3584 
Q 2666 3584 2933 3390 
Q 3200 3197 3328 2828 
z
" transform="scale(0.015625)"/>
       <path id="DejaVuSans-65" d="M 3597 1894 
L 3597 1613 
L 953 1613 
Q 991 1019 1311 708 
Q 1631 397 2203 397 
Q 2534 397 2845 478 
Q 3156 559 3463 722 
L 3463 178 
Q 3153 47 2828 -22 
Q 2503 -91 2169 -91 
Q 1331 -91 842 396 
Q 353 884 353 1716 
Q 353 2575 817 3079 
Q 1281 3584 2069 3584 
Q 2775 3584 3186 3129 
Q 3597 2675 3597 1894 
z
M 3022 2063 
Q 3016 2534 2758 2815 
Q 2500 3097 2075 3097 
Q 1594 3097 1305 2825 
Q 1016 2553 972 2059 
L 3022 2063 
z
" transform="scale(0.015625)"/>
       <path id="DejaVuSans-20" transform="scale(0.015625)"/>
       <path id="DejaVuSans-28" d="M 1984 4856 
Q 1566 4138 1362 3434 
Q 1159 2731 1159 2009 
Q 1159 1288 1364 580 
Q 1569 -128 1984 -844 
L 1484 -844 
Q 1016 -109 783 600 
Q 550 1309 550 2009 
Q 550 2706 781 3412 
Q 1013 4119 1484 4856 
L 1984 4856 
z
" transform="scale(0.015625)"/>
       <path id="DejaVuSans-68" d="M 3513 2113 
L 3513 0 
L 2938 0 
L 2938 2094 
Q 2938 2591 2744 2837 
Q 2550 3084 2163 3084 
Q 1697 3084 1428 2787 
Q 1159 2491 1159 1978 
L 1159 0 
L 581 0 
L 581 4863 
L 1159 4863 
L 1159 2956 
Q 1366 3272 1645 3428 
Q 1925 3584 2291 3584 
Q 2894 3584 3203 3211 
Q 3513 2838 3513 2113 
z
" transform="scale(0.015625)"/>
       <path id="DejaVuSans-6f" d="M 1959 3097 
Q 1497 3097 1228 2736 
Q 959 2375 959 1747 
Q 959 1119 1226 758 
Q 1494 397 1959 397 
Q 2419 397 2687 759 
Q 2956 1122 2956 1747 
Q 2956 2369 2687 2733 
Q 2419 3097 1959 3097 
z
M 1959 3584 
Q 2709 3584 3137 3096 
Q 3566 2609 3566 1747 
Q 3566 888 3137 398 
Q 2709 -91 1959 -91 
Q 1206 -91 779 398 
Q 353 888 353 1747 
Q 353 2609 779 3096 
Q 1206 3584 1959 3584 
z
" transform="scale(0.015625)"/>
       <path id="DejaVuSans-75" d="M 544 1381 
L 544 3500 
L 1119 3500 
L 1119 1403 
Q 1119 906 1312 657 
Q 1506 409 1894 409 
Q 2359 409 2629 706 
Q 2900 1003 2900 1516 
L 2900 3500 
L 3475 3500 
L 3475 0 
L 2900 0 
L 2900 538 
Q 2691 219 2414 64 
Q 2138 -91 1772 -91 
Q 1169 -91 856 284 
Q 544 659 544 1381 
z
M 1991 3584 
L 1991 3584 
z
" transform="scale(0.015625)"/>
       <path id="DejaVuSans-72" d="M 2631 2963 
Q 2534 3019 2420 3045 
Q 2306 3072 2169 3072 
Q 1681 3072 1420 2755 
Q 1159 2438 1159 1844 
L 1159 0 
L 581 0 
L 581 3500 
L 1159 3500 
L 1159 2956 
Q 1341 3275 1631 3429 
Q 1922 3584 2338 3584 
Q 2397 3584 2469 3576 
Q 2541 3569 2628 3553 
L 2631 2963 
z
" transform="scale(0.015625)"/>
       <path id="DejaVuSans-73" d="M 2834 3397 
L 2834 2853 
Q 2591 2978 2328 3040 
Q 2066 3103 1784 3103 
Q 1356 3103 1142 2972 
Q 928 2841 928 2578 
Q 928 2378 1081 2264 
Q 1234 2150 1697 2047 
L 1894 2003 
Q 2506 1872 2764 1633 
Q 3022 1394 3022 966 
Q 3022 478 2636 193 
Q 2250 -91 1575 -91 
Q 1294 -91 989 -36 
Q 684 19 347 128 
L 347 722 
Q 666 556 975 473 
Q 1284 391 1588 391 
Q 1994 391 2212 530 
Q 2431 669 2431 922 
Q 2431 1156 2273 1281 
Q 2116 1406 1581 1522 
L 1381 1569 
Q 847 1681 609 1914 
Q 372 2147 372 2553 
Q 372 3047 722 3315 
Q 1072 3584 1716 3584 
Q 2034 3584 2315 3537 
Q 2597 3491 2834 3397 
z
" transform="scale(0.015625)"/>
       <path id="DejaVuSans-29" d="M 513 4856 
L 1013 4856 
Q 1481 4119 1714 3412 
Q 1947 2706 1947 2009 
Q 1947 1309 1714 600 
Q 1481 -109 1013 -844 
L 513 -844 
Q 928 -128 1133 580 
Q 1338 1288 1338 2009 
Q 1338 2731 1133 3434 
Q 928 4138 513 4856 
z
" transform="scale(0.015625)"/>
      </defs>
      <use xlink:href="#DejaVuSans-54"/>
      <use xlink:href="#DejaVuSans-69" transform="translate(57.958984 0)"/>
      <use xlink:href="#DejaVuSans-6d" transform="translate(85.742188 0)"/>
      <use xlink:href="#DejaVuSans-65" transform="translate(183.154297 0)"/>
      <use xlink:href="#DejaVuSans-20" transform="translate(244.677734 0)"/>
      <use xlink:href="#DejaVuSans-28" transform="translate(276.464844 0)"/>
      <use xlink:href="#DejaVuSans-68" transform="translate(315.478516 0)"/>
      <use xlink:href="#DejaVuSans-6f" transform="translate(378.857422 0)"/>
      <use xlink:href="#DejaVuSans-75" transform="translate(440.039062 0)"/>
      <use xlink:href="#DejaVuSans-72" transform="translate(503.417969 0)"/>
      <use xlink:href="#DejaVuSans-73" transform="translate(544.53125 0)"/>
      <use xlink:href="#DejaVuSans-29" transform="translate(596.630859 0)"/>
     </g>
    </g>
   </g>
   <g id="matplotlib.axis_2">
    <g id="ytick_1">
     <g id="line2d_11">
      <path d="M 52.160938 228.61365 
L 350.580938 228.61365 
" clip-path="url(#p6d20d16f98)" style="fill: none; stroke: #b0b0b0; stroke-width: 0.8; stroke-linecap: square"/>
     </g>
     <g id="line2d_12">
      <defs>
       <path id="mece0c5f677" d="M 0 0 
L -3.5 0 
" style="stroke: #000000; stroke-width: 0.8"/>
      </defs>
      <g>
       <use xlink:href="#mece0c5f677" x="52.160938" y="228.61365" style="stroke: #000000; stroke-width: 0.8"/>
      </g>
     </g>
     <g id="text_7">
      <!-- −0.2 -->
      <g transform="translate(20.878125 232.412869) scale(0.1 -0.1)">
       <defs>
        <path id="DejaVuSans-2212" d="M 678 2272 
L 4684 2272 
L 4684 1741 
L 678 1741 
L 678 2272 
z
" transform="scale(0.015625)"/>
        <path id="DejaVuSans-2e" d="M 684 794 
L 1344 794 
L 1344 0 
L 684 0 
L 684 794 
z
" transform="scale(0.015625)"/>
       </defs>
       <use xlink:href="#DejaVuSans-2212"/>
       <use xlink:href="#DejaVuSans-30" transform="translate(83.789062 0)"/>
       <use xlink:href="#DejaVuSans-2e" transform="translate(147.412109 0)"/>
       <use xlink:href="#DejaVuSans-32" transform="translate(179.199219 0)"/>
      </g>
     </g>
    </g>
    <g id="ytick_2">
     <g id="line2d_13">
      <path d="M 52.160938 196.442517 
L 350.580938 196.442517 
" clip-path="url(#p6d20d16f98)" style="fill: none; stroke: #b0b0b0; stroke-width: 0.8; stroke-linecap: square"/>
     </g>
     <g id="line2d_14">
      <g>
       <use xlink:href="#mece0c5f677" x="52.160938" y="196.442517" style="stroke: #000000; stroke-width: 0.8"/>
      </g>
     </g>
     <g id="text_8">
      <!-- 0.0 -->
      <g transform="translate(29.257813 200.241735) scale(0.1 -0.1)">
       <use xlink:href="#DejaVuSans-30"/>
       <use xlink:href="#DejaVuSans-2e" transform="translate(63.623047 0)"/>
       <use xlink:href="#DejaVuSans-30" transform="translate(95.410156 0)"/>
      </g>
     </g>
    </g>
    <g id="ytick_3">
     <g id="line2d_15">
      <path d="M 52.160938 164.271383 
L 350.580938 164.271383 
" clip-path="url(#p6d20d16f98)" style="fill: none; stroke: #b0b0b0; stroke-width: 0.8; stroke-linecap: square"/>
     </g>
     <g id="line2d_16">
      <g>
       <use xlink:href="#mece0c5f677" x="52.160938" y="164.271383" style="stroke: #000000; stroke-width: 0.8"/>
      </g>
     </g>
     <g id="text_9">
      <!-- 0.2 -->
      <g transform="translate(29.257813 168.070602) scale(0.1 -0.1)">
       <use xlink:href="#DejaVuSans-30"/>
       <use xlink:href="#DejaVuSans-2e" transform="translate(63.623047 0)"/>
       <use xlink:href="#DejaVuSans-32" transform="translate(95.410156 0)"/>
      </g>
     </g>
    </g>
    <g id="ytick_4">
     <g id="line2d_17">
      <path d="M 52.160938 132.10025 
L 350.580938 132.10025 
" clip-path="url(#p6d20d16f98)" style="fill: none; stroke: #b0b0b0; stroke-width: 0.8; stroke-linecap: square"/>
     </g>
     <g id="line2d_18">
      <g>
       <use xlink:href="#mece0c5f677" x="52.160938" y="132.10025" style="stroke: #000000; stroke-width: 0.8"/>
      </g>
     </g>
     <g id="text_10">
      <!-- 0.4 -->
      <g transform="translate(29.257813 135.899469) scale(0.1 -0.1)">
       <use xlink:href="#DejaVuSans-30"/>
       <use xlink:href="#DejaVuSans-2e" transform="translate(63.623047 0)"/>
       <use xlink:href="#DejaVuSans-34" transform="translate(95.410156 0)"/>
      </g>
     </g>
    </g>
    <g id="ytick_5">
     <g id="line2d_19">
      <path d="M 52.160938 99.929117 
L 350.580938 99.929117 
" clip-path="url(#p6d20d16f98)" style="fill: none; stroke: #b0b0b0; stroke-width: 0.8; stroke-linecap: square"/>
     </g>
     <g id="line2d_20">
      <g>
       <use xlink:href="#mece0c5f677" x="52.160938" y="99.929117" style="stroke: #000000; stroke-width: 0.8"/>
      </g>
     </g>
     <g id="text_11">
      <!-- 0.6 -->
      <g transform="translate(29.257813 103.728336) scale(0.1 -0.1)">
       <defs>
        <path id="DejaVuSans-36" d="M 2113 2584 
Q 1688 2584 1439 2293 
Q 1191 2003 1191 1497 
Q 1191 994 1439 701 
Q 1688 409 2113 409 
Q 2538 409 2786 701 
Q 3034 994 3034 1497 
Q 3034 2003 2786 2293 
Q 2538 2584 2113 2584 
z
M 3366 4563 
L 3366 3988 
Q 3128 4100 2886 4159 
Q 2644 4219 2406 4219 
Q 1781 4219 1451 3797 
Q 1122 3375 1075 2522 
Q 1259 2794 1537 2939 
Q 1816 3084 2150 3084 
Q 2853 3084 3261 2657 
Q 3669 2231 3669 1497 
Q 3669 778 3244 343 
Q 2819 -91 2113 -91 
Q 1303 -91 875 529 
Q 447 1150 447 2328 
Q 447 3434 972 4092 
Q 1497 4750 2381 4750 
Q 2619 4750 2861 4703 
Q 3103 4656 3366 4563 
z
" transform="scale(0.015625)"/>
       </defs>
       <use xlink:href="#DejaVuSans-30"/>
       <use xlink:href="#DejaVuSans-2e" transform="translate(63.623047 0)"/>
       <use xlink:href="#DejaVuSans-36" transform="translate(95.410156 0)"/>
      </g>
     </g>
    </g>
    <g id="ytick_6">
     <g id="line2d_21">
      <path d="M 52.160938 67.757984 
L 350.580938 67.757984 
" clip-path="url(#p6d20d16f98)" style="fill: none; stroke: #b0b0b0; stroke-width: 0.8; stroke-linecap: square"/>
     </g>
     <g id="line2d_22">
      <g>
       <use xlink:href="#mece0c5f677" x="52.160938" y="67.757984" style="stroke: #000000; stroke-width: 0.8"/>
      </g>
     </g>
     <g id="text_12">
      <!-- 0.8 -->
      <g transform="translate(29.257813 71.557202) scale(0.1 -0.1)">
       <defs>
        <path id="DejaVuSans-38" d="M 2034 2216 
Q 1584 2216 1326 1975 
Q 1069 1734 1069 1313 
Q 1069 891 1326 650 
Q 1584 409 2034 409 
Q 2484 409 2743 651 
Q 3003 894 3003 1313 
Q 3003 1734 2745 1975 
Q 2488 2216 2034 2216 
z
M 1403 2484 
Q 997 2584 770 2862 
Q 544 3141 544 3541 
Q 544 4100 942 4425 
Q 1341 4750 2034 4750 
Q 2731 4750 3128 4425 
Q 3525 4100 3525 3541 
Q 3525 3141 3298 2862 
Q 3072 2584 2669 2484 
Q 3125 2378 3379 2068 
Q 3634 1759 3634 1313 
Q 3634 634 3220 271 
Q 2806 -91 2034 -91 
Q 1263 -91 848 271 
Q 434 634 434 1313 
Q 434 1759 690 2068 
Q 947 2378 1403 2484 
z
M 1172 3481 
Q 1172 3119 1398 2916 
Q 1625 2713 2034 2713 
Q 2441 2713 2670 2916 
Q 2900 3119 2900 3481 
Q 2900 3844 2670 4047 
Q 2441 4250 2034 4250 
Q 1625 4250 1398 4047 
Q 1172 3844 1172 3481 
z
" transform="scale(0.015625)"/>
       </defs>
       <use xlink:href="#DejaVuSans-30"/>
       <use xlink:href="#DejaVuSans-2e" transform="translate(63.623047 0)"/>
       <use xlink:href="#DejaVuSans-38" transform="translate(95.410156 0)"/>
      </g>
     </g>
    </g>
    <g id="ytick_7">
     <g id="line2d_23">
      <path d="M 52.160938 35.586851 
L 350.580938 35.586851 
" clip-path="url(#p6d20d16f98)" style="fill: none; stroke: #b0b0b0; stroke-width: 0.8; stroke-linecap: square"/>
     </g>
     <g id="line2d_24">
      <g>
       <use xlink:href="#mece0c5f677" x="52.160938" y="35.586851" style="stroke: #000000; stroke-width: 0.8"/>
      </g>
     </g>
     <g id="text_13">
      <!-- 1.0 -->
      <g transform="translate(29.257813 39.386069) scale(0.1 -0.1)">
       <use xlink:href="#DejaVuSans-31"/>
       <use xlink:href="#DejaVuSans-2e" transform="translate(63.623047 0)"/>
       <use xlink:href="#DejaVuSans-30" transform="translate(95.410156 0)"/>
      </g>
     </g>
    </g>
    <g id="text_14">
     <!-- Energy - usage (kWh) -->
     <g transform="translate(14.798438 178.895) rotate(-90) scale(0.1 -0.1)">
      <defs>
       <path id="DejaVuSans-45" d="M 628 4666 
L 3578 4666 
L 3578 4134 
L 1259 4134 
L 1259 2753 
L 3481 2753 
L 3481 2222 
L 1259 2222 
L 1259 531 
L 3634 531 
L 3634 0 
L 628 0 
L 628 4666 
z
" transform="scale(0.015625)"/>
       <path id="DejaVuSans-6e" d="M 3513 2113 
L 3513 0 
L 2938 0 
L 2938 2094 
Q 2938 2591 2744 2837 
Q 2550 3084 2163 3084 
Q 1697 3084 1428 2787 
Q 1159 2491 1159 1978 
L 1159 0 
L 581 0 
L 581 3500 
L 1159 3500 
L 1159 2956 
Q 1366 3272 1645 3428 
Q 1925 3584 2291 3584 
Q 2894 3584 3203 3211 
Q 3513 2838 3513 2113 
z
" transform="scale(0.015625)"/>
       <path id="DejaVuSans-67" d="M 2906 1791 
Q 2906 2416 2648 2759 
Q 2391 3103 1925 3103 
Q 1463 3103 1205 2759 
Q 947 2416 947 1791 
Q 947 1169 1205 825 
Q 1463 481 1925 481 
Q 2391 481 2648 825 
Q 2906 1169 2906 1791 
z
M 3481 434 
Q 3481 -459 3084 -895 
Q 2688 -1331 1869 -1331 
Q 1566 -1331 1297 -1286 
Q 1028 -1241 775 -1147 
L 775 -588 
Q 1028 -725 1275 -790 
Q 1522 -856 1778 -856 
Q 2344 -856 2625 -561 
Q 2906 -266 2906 331 
L 2906 616 
Q 2728 306 2450 153 
Q 2172 0 1784 0 
Q 1141 0 747 490 
Q 353 981 353 1791 
Q 353 2603 747 3093 
Q 1141 3584 1784 3584 
Q 2172 3584 2450 3431 
Q 2728 3278 2906 2969 
L 2906 3500 
L 3481 3500 
L 3481 434 
z
" transform="scale(0.015625)"/>
       <path id="DejaVuSans-79" d="M 2059 -325 
Q 1816 -950 1584 -1140 
Q 1353 -1331 966 -1331 
L 506 -1331 
L 506 -850 
L 844 -850 
Q 1081 -850 1212 -737 
Q 1344 -625 1503 -206 
L 1606 56 
L 191 3500 
L 800 3500 
L 1894 763 
L 2988 3500 
L 3597 3500 
L 2059 -325 
z
" transform="scale(0.015625)"/>
       <path id="DejaVuSans-2d" d="M 313 2009 
L 1997 2009 
L 1997 1497 
L 313 1497 
L 313 2009 
z
" transform="scale(0.015625)"/>
       <path id="DejaVuSans-61" d="M 2194 1759 
Q 1497 1759 1228 1600 
Q 959 1441 959 1056 
Q 959 750 1161 570 
Q 1363 391 1709 391 
Q 2188 391 2477 730 
Q 2766 1069 2766 1631 
L 2766 1759 
L 2194 1759 
z
M 3341 1997 
L 3341 0 
L 2766 0 
L 2766 531 
Q 2569 213 2275 61 
Q 1981 -91 1556 -91 
Q 1019 -91 701 211 
Q 384 513 384 1019 
Q 384 1609 779 1909 
Q 1175 2209 1959 2209 
L 2766 2209 
L 2766 2266 
Q 2766 2663 2505 2880 
Q 2244 3097 1772 3097 
Q 1472 3097 1187 3025 
Q 903 2953 641 2809 
L 641 3341 
Q 956 3463 1253 3523 
Q 1550 3584 1831 3584 
Q 2591 3584 2966 3190 
Q 3341 2797 3341 1997 
z
" transform="scale(0.015625)"/>
       <path id="DejaVuSans-6b" d="M 581 4863 
L 1159 4863 
L 1159 1991 
L 2875 3500 
L 3609 3500 
L 1753 1863 
L 3688 0 
L 2938 0 
L 1159 1709 
L 1159 0 
L 581 0 
L 581 4863 
z
" transform="scale(0.015625)"/>
       <path id="DejaVuSans-57" d="M 213 4666 
L 850 4666 
L 1831 722 
L 2809 4666 
L 3519 4666 
L 4500 722 
L 5478 4666 
L 6119 4666 
L 4947 0 
L 4153 0 
L 3169 4050 
L 2175 0 
L 1381 0 
L 213 4666 
z
" transform="scale(0.015625)"/>
      </defs>
      <use xlink:href="#DejaVuSans-45"/>
      <use xlink:href="#DejaVuSans-6e" transform="translate(63.183594 0)"/>
      <use xlink:href="#DejaVuSans-65" transform="translate(126.5625 0)"/>
      <use xlink:href="#DejaVuSans-72" transform="translate(188.085938 0)"/>
      <use xlink:href="#DejaVuSans-67" transform="translate(227.449219 0)"/>
      <use xlink:href="#DejaVuSans-79" transform="translate(290.925781 0)"/>
      <use xlink:href="#DejaVuSans-20" transform="translate(350.105469 0)"/>
      <use xlink:href="#DejaVuSans-2d" transform="translate(381.892578 0)"/>
      <use xlink:href="#DejaVuSans-20" transform="translate(417.976562 0)"/>
      <use xlink:href="#DejaVuSans-75" transform="translate(449.763672 0)"/>
      <use xlink:href="#DejaVuSans-73" transform="translate(513.142578 0)"/>
      <use xlink:href="#DejaVuSans-61" transform="translate(565.242188 0)"/>
      <use xlink:href="#DejaVuSans-67" transform="translate(626.521484 0)"/>
      <use xlink:href="#DejaVuSans-65" transform="translate(689.998047 0)"/>
      <use xlink:href="#DejaVuSans-20" transform="translate(751.521484 0)"/>
      <use xlink:href="#DejaVuSans-28" transform="translate(783.308594 0)"/>
      <use xlink:href="#DejaVuSans-6b" transform="translate(822.322266 0)"/>
      <use xlink:href="#DejaVuSans-57" transform="translate(880.232422 0)"/>
      <use xlink:href="#DejaVuSans-68" transform="translate(979.109375 0)"/>
      <use xlink:href="#DejaVuSans-29" transform="translate(1042.488281 0)"/>
     </g>
    </g>
   </g>
   <g id="line2d_25">
    <path d="M 65.725483 196.442517 
L 71.49763 196.442517 
L 77.269777 196.442517 
L 83.041924 196.442517 
L 88.814071 196.442517 
L 94.586218 196.442517 
L 100.358365 196.442517 
L 106.130512 196.442517 
L 111.902659 196.442517 
L 117.674806 196.442517 
L 123.446953 196.442517 
L 129.2191 196.442517 
L 134.991247 196.442517 
L 140.763394 196.442517 
L 146.535541 196.442517 
L 152.307688 196.442517 
L 158.079835 196.442517 
L 163.851982 196.442517 
L 169.624129 196.442517 
L 175.396276 195.537703 
L 181.168423 189.304546 
L 186.94057 178.346254 
L 192.712717 115.009336 
L 198.484864 51.672417 
L 204.257011 51.672417 
L 210.029158 56.196483 
L 215.801305 74.292745 
L 221.573452 101.437139 
L 227.345599 82.084192 
L 233.117746 69.76868 
L 238.889893 51.672417 
L 244.66204 51.672417 
L 250.434187 51.672417 
L 256.206334 92.389008 
L 261.978481 74.292745 
L 267.750628 87.864942 
L 273.522775 83.340876 
L 279.294922 151.201861 
L 285.067069 196.442517 
L 290.839216 196.442517 
L 296.611363 196.442517 
L 302.38351 196.442517 
L 308.155657 196.442517 
L 313.927804 196.442517 
L 319.699951 196.442517 
L 325.472098 196.442517 
L 331.244245 196.442517 
L 337.016392 196.442517 
" clip-path="url(#p6d20d16f98)" style="fill: none; stroke: #1f77b4; stroke-width: 1.5; stroke-linecap: square"/>
   </g>
   <g id="line2d_26">
    <path d="M 65.725483 196.442517 
L 71.49763 17.892727 
L 77.269777 17.892727 
L 83.041924 17.892727 
L 88.814071 17.892727 
L 94.586218 125.666024 
L 100.358365 17.892727 
L 106.130512 45.23819 
L 111.902659 196.442517 
L 117.674806 196.442517 
L 123.446953 196.442517 
L 129.2191 196.442517 
L 134.991247 29.152624 
L 140.763394 196.442517 
L 146.535541 196.442517 
L 152.307688 72.583654 
L 158.079835 196.442517 
L 163.851982 196.442517 
L 169.624129 196.442517 
L 175.396276 196.442517 
L 181.168423 196.442517 
L 186.94057 196.442517 
L 192.712717 196.442517 
L 198.484864 196.442517 
L 204.257011 196.442517 
L 210.029158 196.442517 
L 215.801305 196.442517 
L 221.573452 196.442517 
L 227.345599 196.442517 
L 233.117746 196.442517 
L 238.889893 196.442517 
L 244.66204 196.442517 
L 250.434187 196.442517 
L 256.206334 196.442517 
L 261.978481 196.442517 
L 267.750628 196.442517 
L 273.522775 196.442517 
L 279.294922 179.703474 
L 285.067069 157.736622 
L 290.839216 196.442517 
L 296.611363 196.442517 
L 302.38351 17.892727 
L 308.155657 196.442517 
L 313.927804 196.442517 
L 319.699951 91.886334 
L 325.472098 17.892727 
L 331.244245 196.442517 
L 337.016392 196.442517 
" clip-path="url(#p6d20d16f98)" style="fill: none; stroke: #ff7f0e; stroke-width: 1.5; stroke-linecap: square"/>
   </g>
   <g id="patch_3">
    <path d="M 52.160938 242.44 
L 52.160938 7.2 
" style="fill: none; stroke: #000000; stroke-width: 0.8; stroke-linejoin: miter; stroke-linecap: square"/>
   </g>
   <g id="patch_4">
    <path d="M 350.580938 242.44 
L 350.580938 7.2 
" style="fill: none; stroke: #000000; stroke-width: 0.8; stroke-linejoin: miter; stroke-linecap: square"/>
   </g>
   <g id="patch_5">
    <path d="M 52.160938 242.44 
L 350.580938 242.44 
" style="fill: none; stroke: #000000; stroke-width: 0.8; stroke-linejoin: miter; stroke-linecap: square"/>
   </g>
   <g id="patch_6">
    <path d="M 52.160938 7.2 
L 350.580938 7.2 
" style="fill: none; stroke: #000000; stroke-width: 0.8; stroke-linejoin: miter; stroke-linecap: square"/>
   </g>
   <g id="legend_1">
    <g id="patch_7">
     <path d="M 59.160938 237.44 
L 173.389063 237.44 
Q 175.389063 237.44 175.389063 235.44 
L 175.389063 207.08375 
Q 175.389063 205.08375 173.389063 205.08375 
L 59.160938 205.08375 
Q 57.160938 205.08375 57.160938 207.08375 
L 57.160938 235.44 
Q 57.160938 237.44 59.160938 237.44 
z
" style="fill: #ffffff; opacity: 0.8; stroke: #cccccc; stroke-linejoin: miter"/>
    </g>
    <g id="line2d_27">
     <path d="M 61.160938 213.182187 
L 71.160938 213.182187 
L 81.160938 213.182187 
" style="fill: none; stroke: #1f77b4; stroke-width: 1.5; stroke-linecap: square"/>
    </g>
    <g id="text_15">
     <!-- CES Charging -->
     <g transform="translate(89.160938 216.682187) scale(0.1 -0.1)">
      <defs>
       <path id="DejaVuSans-43" d="M 4122 4306 
L 4122 3641 
Q 3803 3938 3442 4084 
Q 3081 4231 2675 4231 
Q 1875 4231 1450 3742 
Q 1025 3253 1025 2328 
Q 1025 1406 1450 917 
Q 1875 428 2675 428 
Q 3081 428 3442 575 
Q 3803 722 4122 1019 
L 4122 359 
Q 3791 134 3420 21 
Q 3050 -91 2638 -91 
Q 1578 -91 968 557 
Q 359 1206 359 2328 
Q 359 3453 968 4101 
Q 1578 4750 2638 4750 
Q 3056 4750 3426 4639 
Q 3797 4528 4122 4306 
z
" transform="scale(0.015625)"/>
       <path id="DejaVuSans-53" d="M 3425 4513 
L 3425 3897 
Q 3066 4069 2747 4153 
Q 2428 4238 2131 4238 
Q 1616 4238 1336 4038 
Q 1056 3838 1056 3469 
Q 1056 3159 1242 3001 
Q 1428 2844 1947 2747 
L 2328 2669 
Q 3034 2534 3370 2195 
Q 3706 1856 3706 1288 
Q 3706 609 3251 259 
Q 2797 -91 1919 -91 
Q 1588 -91 1214 -16 
Q 841 59 441 206 
L 441 856 
Q 825 641 1194 531 
Q 1563 422 1919 422 
Q 2459 422 2753 634 
Q 3047 847 3047 1241 
Q 3047 1584 2836 1778 
Q 2625 1972 2144 2069 
L 1759 2144 
Q 1053 2284 737 2584 
Q 422 2884 422 3419 
Q 422 4038 858 4394 
Q 1294 4750 2059 4750 
Q 2388 4750 2728 4690 
Q 3069 4631 3425 4513 
z
" transform="scale(0.015625)"/>
      </defs>
      <use xlink:href="#DejaVuSans-43"/>
      <use xlink:href="#DejaVuSans-45" transform="translate(69.824219 0)"/>
      <use xlink:href="#DejaVuSans-53" transform="translate(133.007812 0)"/>
      <use xlink:href="#DejaVuSans-20" transform="translate(196.484375 0)"/>
      <use xlink:href="#DejaVuSans-43" transform="translate(228.271484 0)"/>
      <use xlink:href="#DejaVuSans-68" transform="translate(298.095703 0)"/>
      <use xlink:href="#DejaVuSans-61" transform="translate(361.474609 0)"/>
      <use xlink:href="#DejaVuSans-72" transform="translate(422.753906 0)"/>
      <use xlink:href="#DejaVuSans-67" transform="translate(462.117188 0)"/>
      <use xlink:href="#DejaVuSans-69" transform="translate(525.59375 0)"/>
      <use xlink:href="#DejaVuSans-6e" transform="translate(553.376953 0)"/>
      <use xlink:href="#DejaVuSans-67" transform="translate(616.755859 0)"/>
     </g>
    </g>
    <g id="line2d_28">
     <path d="M 61.160938 227.860312 
L 71.160938 227.860312 
L 81.160938 227.860312 
" style="fill: none; stroke: #ff7f0e; stroke-width: 1.5; stroke-linecap: square"/>
    </g>
    <g id="text_16">
     <!-- CES Discharging -->
     <g transform="translate(89.160938 231.360312) scale(0.1 -0.1)">
      <defs>
       <path id="DejaVuSans-44" d="M 1259 4147 
L 1259 519 
L 2022 519 
Q 2988 519 3436 956 
Q 3884 1394 3884 2338 
Q 3884 3275 3436 3711 
Q 2988 4147 2022 4147 
L 1259 4147 
z
M 628 4666 
L 1925 4666 
Q 3281 4666 3915 4102 
Q 4550 3538 4550 2338 
Q 4550 1131 3912 565 
Q 3275 0 1925 0 
L 628 0 
L 628 4666 
z
" transform="scale(0.015625)"/>
       <path id="DejaVuSans-63" d="M 3122 3366 
L 3122 2828 
Q 2878 2963 2633 3030 
Q 2388 3097 2138 3097 
Q 1578 3097 1268 2742 
Q 959 2388 959 1747 
Q 959 1106 1268 751 
Q 1578 397 2138 397 
Q 2388 397 2633 464 
Q 2878 531 3122 666 
L 3122 134 
Q 2881 22 2623 -34 
Q 2366 -91 2075 -91 
Q 1284 -91 818 406 
Q 353 903 353 1747 
Q 353 2603 823 3093 
Q 1294 3584 2113 3584 
Q 2378 3584 2631 3529 
Q 2884 3475 3122 3366 
z
" transform="scale(0.015625)"/>
      </defs>
      <use xlink:href="#DejaVuSans-43"/>
      <use xlink:href="#DejaVuSans-45" transform="translate(69.824219 0)"/>
      <use xlink:href="#DejaVuSans-53" transform="translate(133.007812 0)"/>
      <use xlink:href="#DejaVuSans-20" transform="translate(196.484375 0)"/>
      <use xlink:href="#DejaVuSans-44" transform="translate(228.271484 0)"/>
      <use xlink:href="#DejaVuSans-69" transform="translate(305.273438 0)"/>
      <use xlink:href="#DejaVuSans-73" transform="translate(333.056641 0)"/>
      <use xlink:href="#DejaVuSans-63" transform="translate(385.15625 0)"/>
      <use xlink:href="#DejaVuSans-68" transform="translate(440.136719 0)"/>
      <use xlink:href="#DejaVuSans-61" transform="translate(503.515625 0)"/>
      <use xlink:href="#DejaVuSans-72" transform="translate(564.794922 0)"/>
      <use xlink:href="#DejaVuSans-67" transform="translate(604.158203 0)"/>
      <use xlink:href="#DejaVuSans-69" transform="translate(667.634766 0)"/>
      <use xlink:href="#DejaVuSans-6e" transform="translate(695.417969 0)"/>
      <use xlink:href="#DejaVuSans-67" transform="translate(758.796875 0)"/>
     </g>
    </g>
   </g>
  </g>
  <g id="axes_2">
   <g id="patch_8">
    <path d="M 406.760937 242.44 
L 705.180938 242.44 
L 705.180938 7.2 
L 406.760937 7.2 
z
" style="fill: #ffffff"/>
   </g>
   <g id="FillBetweenPolyCollection_3">
    <defs>
     <path id="m916893e412" d="M 420.325483 -80.075424 
L 420.325483 -80.075424 
L 426.09763 -80.075424 
L 431.869777 -80.075424 
L 437.641924 -80.075424 
L 443.414071 -80.075424 
L 449.186218 -80.075424 
L 454.958365 -80.075424 
L 460.730512 -80.075424 
L 466.502659 -80.075424 
L 472.274806 -80.075424 
L 478.046953 -80.075424 
L 483.8191 -80.075424 
L 489.591247 -80.075424 
L 495.363394 -80.075424 
L 501.135541 -80.075424 
L 506.907688 -80.075424 
L 512.679835 -80.075424 
L 518.451982 -80.075424 
L 524.224129 -80.075424 
L 529.996276 -63.682996 
L 535.768423 -62.21992 
L 541.54057 -55.79144 
L 547.312717 -179.227798 
L 553.084864 -179.227798 
L 558.857011 -139.963432 
L 564.629158 -145.069619 
L 570.401305 -141.599042 
L 576.173452 -191.121256 
L 581.945599 -149.936375 
L 587.717746 -166.836976 
L 593.489893 -147.978867 
L 599.26204 -179.227798 
L 605.034187 -144.879763 
L 610.806334 -166.836976 
L 616.578481 -132.746726 
L 622.350628 -166.836976 
L 628.122775 -204.833468 
L 633.894922 -59.071259 
L 639.667069 -80.075424 
L 645.439216 -80.075424 
L 651.211363 -80.075424 
L 656.98351 -80.075424 
L 662.755657 -80.075424 
L 668.527804 -80.075424 
L 674.299951 -80.075424 
L 680.072098 -80.075424 
L 685.844245 -80.075424 
L 691.616392 -80.075424 
L 691.616392 -80.075424 
L 691.616392 -80.075424 
L 685.844245 -80.075424 
L 680.072098 -80.075424 
L 674.299951 -80.075424 
L 668.527804 -80.075424 
L 662.755657 -80.075424 
L 656.98351 -80.075424 
L 651.211363 -80.075424 
L 645.439216 -80.075424 
L 639.667069 -80.075424 
L 633.894922 -171.255989 
L 628.122775 -204.833468 
L 622.350628 -227.235204 
L 616.578481 -230.135943 
L 610.806334 -227.235204 
L 605.034187 -229.265785 
L 599.26204 -222.64176 
L 593.489893 -230.498557 
L 587.717746 -227.235204 
L 581.945599 -229.667337 
L 576.173452 -213.520702 
L 570.401305 -228.127991 
L 564.629158 -229.249204 
L 558.857011 -228.897226 
L 553.084864 -222.64176 
L 547.312717 -222.64176 
L 541.54057 -158.941052 
L 535.768423 -117.337734 
L 529.996276 -110.156582 
L 524.224129 -80.075424 
L 518.451982 -80.075424 
L 512.679835 -80.075424 
L 506.907688 -80.075424 
L 501.135541 -80.075424 
L 495.363394 -80.075424 
L 489.591247 -80.075424 
L 483.8191 -80.075424 
L 478.046953 -80.075424 
L 472.274806 -80.075424 
L 466.502659 -80.075424 
L 460.730512 -80.075424 
L 454.958365 -80.075424 
L 449.186218 -80.075424 
L 443.414071 -80.075424 
L 437.641924 -80.075424 
L 431.869777 -80.075424 
L 426.09763 -80.075424 
L 420.325483 -80.075424 
z
" style="stroke: #1f77b4; stroke-opacity: 0.25"/>
    </defs>
    <g clip-path="url(#p1fe09f9229)">
     <use xlink:href="#m916893e412" x="0" y="279.99625" style="fill: #1f77b4; fill-opacity: 0.25; stroke: #1f77b4; stroke-opacity: 0.25"/>
    </g>
   </g>
   <g id="FillBetweenPolyCollection_4">
    <defs>
     <path id="m6cd3317942" d="M 420.325483 -80.075424 
L 420.325483 -80.075424 
L 426.09763 -80.075424 
L 431.869777 -60.594022 
L 437.641924 -91.841952 
L 443.414071 -74.127401 
L 449.186218 -58.111863 
L 454.958365 -75.074557 
L 460.730512 -75.887029 
L 466.502659 -55.099275 
L 472.274806 -56.839409 
L 478.046953 -85.195202 
L 483.8191 -48.421814 
L 489.591247 -80.075424 
L 495.363394 -80.075424 
L 501.135541 -54.170287 
L 506.907688 -80.075424 
L 512.679835 -80.075424 
L 518.451982 -80.075424 
L 524.224129 -62.604176 
L 529.996276 -60.808451 
L 535.768423 -50.125177 
L 541.54057 -50.125177 
L 547.312717 -80.075424 
L 553.084864 -80.075424 
L 558.857011 -58.568679 
L 564.629158 -50.70566 
L 570.401305 -49.714539 
L 576.173452 -80.075424 
L 581.945599 -58.111863 
L 587.717746 -58.111863 
L 593.489893 -49.650962 
L 599.26204 -80.075424 
L 605.034187 -52.446616 
L 610.806334 -68.127831 
L 616.578481 -52.813838 
L 622.350628 -79.086074 
L 628.122775 -80.075424 
L 633.894922 -48.248977 
L 639.667069 -117.004746 
L 645.439216 -128.849706 
L 651.211363 -76.844458 
L 656.98351 -98.049129 
L 662.755657 -66.975523 
L 668.527804 -127.908515 
L 674.299951 -66.388587 
L 680.072098 -113.383445 
L 685.844245 -135.037095 
L 691.616392 -128.022344 
L 691.616392 -257.299446 
L 691.616392 -257.299446 
L 685.844245 -261.460935 
L 680.072098 -253.571188 
L 674.299951 -209.163452 
L 668.527804 -260.445588 
L 662.755657 -215.76743 
L 656.98351 -246.293108 
L 651.211363 -224.612202 
L 645.439216 -262.103523 
L 639.667069 -247.69731 
L 633.894922 -159.9857 
L 628.122775 -80.075424 
L 622.350628 -81.497961 
L 616.578481 -132.115343 
L 610.806334 -100.340219 
L 605.034187 -126.937764 
L 599.26204 -80.075424 
L 593.489893 -139.350183 
L 587.717746 -111.65575 
L 581.945599 -111.65575 
L 576.173452 -80.075424 
L 570.401305 -147.083984 
L 564.629158 -144.879938 
L 558.857011 -112.238584 
L 553.084864 -80.075424 
L 547.312717 -80.075424 
L 541.54057 -177.343032 
L 535.768423 -177.343032 
L 529.996276 -187.885952 
L 524.224129 -140.345611 
L 518.451982 -80.075424 
L 512.679835 -80.075424 
L 506.907688 -80.075424 
L 501.135541 -192.531454 
L 495.363394 -80.075424 
L 489.591247 -80.075424 
L 483.8191 -150.196097 
L 478.046953 -238.26739 
L 472.274806 -199.479098 
L 466.502659 -185.884388 
L 460.730512 -226.955831 
L 454.958365 -88.281879 
L 449.186218 -111.65575 
L 443.414071 -210.608215 
L 437.641924 -240.111119 
L 431.869777 -198.32361 
L 426.09763 -233.943678 
L 420.325483 -80.075424 
z
" style="stroke: #ff7f0e; stroke-opacity: 0.25"/>
    </defs>
    <g clip-path="url(#p1fe09f9229)">
     <use xlink:href="#m6cd3317942" x="0" y="279.99625" style="fill: #ff7f0e; fill-opacity: 0.25; stroke: #ff7f0e; stroke-opacity: 0.25"/>
    </g>
   </g>
   <g id="matplotlib.axis_3">
    <g id="xtick_6">
     <g id="line2d_29">
      <path d="M 420.325483 242.44 
L 420.325483 7.2 
" clip-path="url(#p1fe09f9229)" style="fill: none; stroke: #b0b0b0; stroke-width: 0.8; stroke-linecap: square"/>
     </g>
     <g id="line2d_30">
      <g>
       <use xlink:href="#m95621ed9f4" x="420.325483" y="242.44" style="stroke: #000000; stroke-width: 0.8"/>
      </g>
     </g>
     <g id="text_17">
      <!-- 0 -->
      <g transform="translate(417.144233 257.038437) scale(0.1 -0.1)">
       <use xlink:href="#DejaVuSans-30"/>
      </g>
     </g>
    </g>
    <g id="xtick_7">
     <g id="line2d_31">
      <path d="M 478.046953 242.44 
L 478.046953 7.2 
" clip-path="url(#p1fe09f9229)" style="fill: none; stroke: #b0b0b0; stroke-width: 0.8; stroke-linecap: square"/>
     </g>
     <g id="line2d_32">
      <g>
       <use xlink:href="#m95621ed9f4" x="478.046953" y="242.44" style="stroke: #000000; stroke-width: 0.8"/>
      </g>
     </g>
     <g id="text_18">
      <!-- 10 -->
      <g transform="translate(471.684453 257.038437) scale(0.1 -0.1)">
       <use xlink:href="#DejaVuSans-31"/>
       <use xlink:href="#DejaVuSans-30" transform="translate(63.623047 0)"/>
      </g>
     </g>
    </g>
    <g id="xtick_8">
     <g id="line2d_33">
      <path d="M 535.768423 242.44 
L 535.768423 7.2 
" clip-path="url(#p1fe09f9229)" style="fill: none; stroke: #b0b0b0; stroke-width: 0.8; stroke-linecap: square"/>
     </g>
     <g id="line2d_34">
      <g>
       <use xlink:href="#m95621ed9f4" x="535.768423" y="242.44" style="stroke: #000000; stroke-width: 0.8"/>
      </g>
     </g>
     <g id="text_19">
      <!-- 20 -->
      <g transform="translate(529.405923 257.038437) scale(0.1 -0.1)">
       <use xlink:href="#DejaVuSans-32"/>
       <use xlink:href="#DejaVuSans-30" transform="translate(63.623047 0)"/>
      </g>
     </g>
    </g>
    <g id="xtick_9">
     <g id="line2d_35">
      <path d="M 593.489893 242.44 
L 593.489893 7.2 
" clip-path="url(#p1fe09f9229)" style="fill: none; stroke: #b0b0b0; stroke-width: 0.8; stroke-linecap: square"/>
     </g>
     <g id="line2d_36">
      <g>
       <use xlink:href="#m95621ed9f4" x="593.489893" y="242.44" style="stroke: #000000; stroke-width: 0.8"/>
      </g>
     </g>
     <g id="text_20">
      <!-- 30 -->
      <g transform="translate(587.127393 257.038437) scale(0.1 -0.1)">
       <use xlink:href="#DejaVuSans-33"/>
       <use xlink:href="#DejaVuSans-30" transform="translate(63.623047 0)"/>
      </g>
     </g>
    </g>
    <g id="xtick_10">
     <g id="line2d_37">
      <path d="M 651.211363 242.44 
L 651.211363 7.2 
" clip-path="url(#p1fe09f9229)" style="fill: none; stroke: #b0b0b0; stroke-width: 0.8; stroke-linecap: square"/>
     </g>
     <g id="line2d_38">
      <g>
       <use xlink:href="#m95621ed9f4" x="651.211363" y="242.44" style="stroke: #000000; stroke-width: 0.8"/>
      </g>
     </g>
     <g id="text_21">
      <!-- 40 -->
      <g transform="translate(644.848863 257.038437) scale(0.1 -0.1)">
       <use xlink:href="#DejaVuSans-34"/>
       <use xlink:href="#DejaVuSans-30" transform="translate(63.623047 0)"/>
      </g>
     </g>
    </g>
    <g id="text_22">
     <!-- Time (hours) -->
     <g transform="translate(524.189687 270.716562) scale(0.1 -0.1)">
      <use xlink:href="#DejaVuSans-54"/>
      <use xlink:href="#DejaVuSans-69" transform="translate(57.958984 0)"/>
      <use xlink:href="#DejaVuSans-6d" transform="translate(85.742188 0)"/>
      <use xlink:href="#DejaVuSans-65" transform="translate(183.154297 0)"/>
      <use xlink:href="#DejaVuSans-20" transform="translate(244.677734 0)"/>
      <use xlink:href="#DejaVuSans-28" transform="translate(276.464844 0)"/>
      <use xlink:href="#DejaVuSans-68" transform="translate(315.478516 0)"/>
      <use xlink:href="#DejaVuSans-6f" transform="translate(378.857422 0)"/>
      <use xlink:href="#DejaVuSans-75" transform="translate(440.039062 0)"/>
      <use xlink:href="#DejaVuSans-72" transform="translate(503.417969 0)"/>
      <use xlink:href="#DejaVuSans-73" transform="translate(544.53125 0)"/>
      <use xlink:href="#DejaVuSans-29" transform="translate(596.630859 0)"/>
     </g>
    </g>
   </g>
   <g id="matplotlib.axis_4">
    <g id="ytick_8">
     <g id="line2d_39">
      <path d="M 406.760937 227.644836 
L 705.180938 227.644836 
" clip-path="url(#p1fe09f9229)" style="fill: none; stroke: #b0b0b0; stroke-width: 0.8; stroke-linecap: square"/>
     </g>
     <g id="line2d_40">
      <g>
       <use xlink:href="#mece0c5f677" x="406.760937" y="227.644836" style="stroke: #000000; stroke-width: 0.8"/>
      </g>
     </g>
     <g id="text_23">
      <!-- −0.2 -->
      <g transform="translate(375.478125 231.444055) scale(0.1 -0.1)">
       <use xlink:href="#DejaVuSans-2212"/>
       <use xlink:href="#DejaVuSans-30" transform="translate(83.789062 0)"/>
       <use xlink:href="#DejaVuSans-2e" transform="translate(147.412109 0)"/>
       <use xlink:href="#DejaVuSans-32" transform="translate(179.199219 0)"/>
      </g>
     </g>
    </g>
    <g id="ytick_9">
     <g id="line2d_41">
      <path d="M 406.760937 199.920826 
L 705.180938 199.920826 
" clip-path="url(#p1fe09f9229)" style="fill: none; stroke: #b0b0b0; stroke-width: 0.8; stroke-linecap: square"/>
     </g>
     <g id="line2d_42">
      <g>
       <use xlink:href="#mece0c5f677" x="406.760937" y="199.920826" style="stroke: #000000; stroke-width: 0.8"/>
      </g>
     </g>
     <g id="text_24">
      <!-- 0.0 -->
      <g transform="translate(383.857812 203.720045) scale(0.1 -0.1)">
       <use xlink:href="#DejaVuSans-30"/>
       <use xlink:href="#DejaVuSans-2e" transform="translate(63.623047 0)"/>
       <use xlink:href="#DejaVuSans-30" transform="translate(95.410156 0)"/>
      </g>
     </g>
    </g>
    <g id="ytick_10">
     <g id="line2d_43">
      <path d="M 406.760937 172.196817 
L 705.180938 172.196817 
" clip-path="url(#p1fe09f9229)" style="fill: none; stroke: #b0b0b0; stroke-width: 0.8; stroke-linecap: square"/>
     </g>
     <g id="line2d_44">
      <g>
       <use xlink:href="#mece0c5f677" x="406.760937" y="172.196817" style="stroke: #000000; stroke-width: 0.8"/>
      </g>
     </g>
     <g id="text_25">
      <!-- 0.2 -->
      <g transform="translate(383.857812 175.996035) scale(0.1 -0.1)">
       <use xlink:href="#DejaVuSans-30"/>
       <use xlink:href="#DejaVuSans-2e" transform="translate(63.623047 0)"/>
       <use xlink:href="#DejaVuSans-32" transform="translate(95.410156 0)"/>
      </g>
     </g>
    </g>
    <g id="ytick_11">
     <g id="line2d_45">
      <path d="M 406.760937 144.472807 
L 705.180938 144.472807 
" clip-path="url(#p1fe09f9229)" style="fill: none; stroke: #b0b0b0; stroke-width: 0.8; stroke-linecap: square"/>
     </g>
     <g id="line2d_46">
      <g>
       <use xlink:href="#mece0c5f677" x="406.760937" y="144.472807" style="stroke: #000000; stroke-width: 0.8"/>
      </g>
     </g>
     <g id="text_26">
      <!-- 0.4 -->
      <g transform="translate(383.857812 148.272026) scale(0.1 -0.1)">
       <use xlink:href="#DejaVuSans-30"/>
       <use xlink:href="#DejaVuSans-2e" transform="translate(63.623047 0)"/>
       <use xlink:href="#DejaVuSans-34" transform="translate(95.410156 0)"/>
      </g>
     </g>
    </g>
    <g id="ytick_12">
     <g id="line2d_47">
      <path d="M 406.760937 116.748797 
L 705.180938 116.748797 
" clip-path="url(#p1fe09f9229)" style="fill: none; stroke: #b0b0b0; stroke-width: 0.8; stroke-linecap: square"/>
     </g>
     <g id="line2d_48">
      <g>
       <use xlink:href="#mece0c5f677" x="406.760937" y="116.748797" style="stroke: #000000; stroke-width: 0.8"/>
      </g>
     </g>
     <g id="text_27">
      <!-- 0.6 -->
      <g transform="translate(383.857812 120.548016) scale(0.1 -0.1)">
       <use xlink:href="#DejaVuSans-30"/>
       <use xlink:href="#DejaVuSans-2e" transform="translate(63.623047 0)"/>
       <use xlink:href="#DejaVuSans-36" transform="translate(95.410156 0)"/>
      </g>
     </g>
    </g>
    <g id="ytick_13">
     <g id="line2d_49">
      <path d="M 406.760937 89.024787 
L 705.180938 89.024787 
" clip-path="url(#p1fe09f9229)" style="fill: none; stroke: #b0b0b0; stroke-width: 0.8; stroke-linecap: square"/>
     </g>
     <g id="line2d_50">
      <g>
       <use xlink:href="#mece0c5f677" x="406.760937" y="89.024787" style="stroke: #000000; stroke-width: 0.8"/>
      </g>
     </g>
     <g id="text_28">
      <!-- 0.8 -->
      <g transform="translate(383.857812 92.824006) scale(0.1 -0.1)">
       <use xlink:href="#DejaVuSans-30"/>
       <use xlink:href="#DejaVuSans-2e" transform="translate(63.623047 0)"/>
       <use xlink:href="#DejaVuSans-38" transform="translate(95.410156 0)"/>
      </g>
     </g>
    </g>
    <g id="ytick_14">
     <g id="line2d_51">
      <path d="M 406.760937 61.300778 
L 705.180938 61.300778 
" clip-path="url(#p1fe09f9229)" style="fill: none; stroke: #b0b0b0; stroke-width: 0.8; stroke-linecap: square"/>
     </g>
     <g id="line2d_52">
      <g>
       <use xlink:href="#mece0c5f677" x="406.760937" y="61.300778" style="stroke: #000000; stroke-width: 0.8"/>
      </g>
     </g>
     <g id="text_29">
      <!-- 1.0 -->
      <g transform="translate(383.857812 65.099996) scale(0.1 -0.1)">
       <use xlink:href="#DejaVuSans-31"/>
       <use xlink:href="#DejaVuSans-2e" transform="translate(63.623047 0)"/>
       <use xlink:href="#DejaVuSans-30" transform="translate(95.410156 0)"/>
      </g>
     </g>
    </g>
    <g id="ytick_15">
     <g id="line2d_53">
      <path d="M 406.760937 33.576768 
L 705.180938 33.576768 
" clip-path="url(#p1fe09f9229)" style="fill: none; stroke: #b0b0b0; stroke-width: 0.8; stroke-linecap: square"/>
     </g>
     <g id="line2d_54">
      <g>
       <use xlink:href="#mece0c5f677" x="406.760937" y="33.576768" style="stroke: #000000; stroke-width: 0.8"/>
      </g>
     </g>
     <g id="text_30">
      <!-- 1.2 -->
      <g transform="translate(383.857812 37.375987) scale(0.1 -0.1)">
       <use xlink:href="#DejaVuSans-31"/>
       <use xlink:href="#DejaVuSans-2e" transform="translate(63.623047 0)"/>
       <use xlink:href="#DejaVuSans-32" transform="translate(95.410156 0)"/>
      </g>
     </g>
    </g>
    <g id="text_31">
     <!-- Energy - subscription (kWh) -->
     <g transform="translate(369.398438 194.304375) rotate(-90) scale(0.1 -0.1)">
      <defs>
       <path id="DejaVuSans-62" d="M 3116 1747 
Q 3116 2381 2855 2742 
Q 2594 3103 2138 3103 
Q 1681 3103 1420 2742 
Q 1159 2381 1159 1747 
Q 1159 1113 1420 752 
Q 1681 391 2138 391 
Q 2594 391 2855 752 
Q 3116 1113 3116 1747 
z
M 1159 2969 
Q 1341 3281 1617 3432 
Q 1894 3584 2278 3584 
Q 2916 3584 3314 3078 
Q 3713 2572 3713 1747 
Q 3713 922 3314 415 
Q 2916 -91 2278 -91 
Q 1894 -91 1617 61 
Q 1341 213 1159 525 
L 1159 0 
L 581 0 
L 581 4863 
L 1159 4863 
L 1159 2969 
z
" transform="scale(0.015625)"/>
       <path id="DejaVuSans-70" d="M 1159 525 
L 1159 -1331 
L 581 -1331 
L 581 3500 
L 1159 3500 
L 1159 2969 
Q 1341 3281 1617 3432 
Q 1894 3584 2278 3584 
Q 2916 3584 3314 3078 
Q 3713 2572 3713 1747 
Q 3713 922 3314 415 
Q 2916 -91 2278 -91 
Q 1894 -91 1617 61 
Q 1341 213 1159 525 
z
M 3116 1747 
Q 3116 2381 2855 2742 
Q 2594 3103 2138 3103 
Q 1681 3103 1420 2742 
Q 1159 2381 1159 1747 
Q 1159 1113 1420 752 
Q 1681 391 2138 391 
Q 2594 391 2855 752 
Q 3116 1113 3116 1747 
z
" transform="scale(0.015625)"/>
       <path id="DejaVuSans-74" d="M 1172 4494 
L 1172 3500 
L 2356 3500 
L 2356 3053 
L 1172 3053 
L 1172 1153 
Q 1172 725 1289 603 
Q 1406 481 1766 481 
L 2356 481 
L 2356 0 
L 1766 0 
Q 1100 0 847 248 
Q 594 497 594 1153 
L 594 3053 
L 172 3053 
L 172 3500 
L 594 3500 
L 594 4494 
L 1172 4494 
z
" transform="scale(0.015625)"/>
      </defs>
      <use xlink:href="#DejaVuSans-45"/>
      <use xlink:href="#DejaVuSans-6e" transform="translate(63.183594 0)"/>
      <use xlink:href="#DejaVuSans-65" transform="translate(126.5625 0)"/>
      <use xlink:href="#DejaVuSans-72" transform="translate(188.085938 0)"/>
      <use xlink:href="#DejaVuSans-67" transform="translate(227.449219 0)"/>
      <use xlink:href="#DejaVuSans-79" transform="translate(290.925781 0)"/>
      <use xlink:href="#DejaVuSans-20" transform="translate(350.105469 0)"/>
      <use xlink:href="#DejaVuSans-2d" transform="translate(381.892578 0)"/>
      <use xlink:href="#DejaVuSans-20" transform="translate(417.976562 0)"/>
      <use xlink:href="#DejaVuSans-73" transform="translate(449.763672 0)"/>
      <use xlink:href="#DejaVuSans-75" transform="translate(501.863281 0)"/>
      <use xlink:href="#DejaVuSans-62" transform="translate(565.242188 0)"/>
      <use xlink:href="#DejaVuSans-73" transform="translate(628.71875 0)"/>
      <use xlink:href="#DejaVuSans-63" transform="translate(680.818359 0)"/>
      <use xlink:href="#DejaVuSans-72" transform="translate(735.798828 0)"/>
      <use xlink:href="#DejaVuSans-69" transform="translate(776.912109 0)"/>
      <use xlink:href="#DejaVuSans-70" transform="translate(804.695312 0)"/>
      <use xlink:href="#DejaVuSans-74" transform="translate(868.171875 0)"/>
      <use xlink:href="#DejaVuSans-69" transform="translate(907.380859 0)"/>
      <use xlink:href="#DejaVuSans-6f" transform="translate(935.164062 0)"/>
      <use xlink:href="#DejaVuSans-6e" transform="translate(996.345703 0)"/>
      <use xlink:href="#DejaVuSans-20" transform="translate(1059.724609 0)"/>
      <use xlink:href="#DejaVuSans-28" transform="translate(1091.511719 0)"/>
      <use xlink:href="#DejaVuSans-6b" transform="translate(1130.525391 0)"/>
      <use xlink:href="#DejaVuSans-57" transform="translate(1188.435547 0)"/>
      <use xlink:href="#DejaVuSans-68" transform="translate(1287.3125 0)"/>
      <use xlink:href="#DejaVuSans-29" transform="translate(1350.691406 0)"/>
     </g>
    </g>
   </g>
   <g id="line2d_55">
    <path d="M 420.325483 199.920826 
L 426.09763 199.920826 
L 431.869777 199.920826 
L 437.641924 199.920826 
L 443.414071 199.920826 
L 449.186218 199.920826 
L 454.958365 199.920826 
L 460.730512 199.920826 
L 466.502659 199.920826 
L 472.274806 199.920826 
L 478.046953 199.920826 
L 483.8191 199.920826 
L 489.591247 199.920826 
L 495.363394 199.920826 
L 501.135541 199.920826 
L 506.907688 199.920826 
L 512.679835 199.920826 
L 518.451982 199.920826 
L 524.224129 199.920826 
L 529.996276 193.076461 
L 535.768423 190.217423 
L 541.54057 172.630004 
L 547.312717 79.061471 
L 553.084864 79.061471 
L 558.857011 95.565921 
L 564.629158 92.836839 
L 570.401305 95.132733 
L 576.173452 77.675271 
L 581.945599 90.194394 
L 587.717746 82.96016 
L 593.489893 90.757538 
L 599.26204 79.061471 
L 605.034187 92.923476 
L 610.806334 82.96016 
L 616.578481 98.554916 
L 622.350628 82.96016 
L 628.122775 75.162782 
L 633.894922 164.832626 
L 639.667069 199.920826 
L 645.439216 199.920826 
L 651.211363 199.920826 
L 656.98351 199.920826 
L 662.755657 199.920826 
L 668.527804 199.920826 
L 674.299951 199.920826 
L 680.072098 199.920826 
L 685.844245 199.920826 
L 691.616392 199.920826 
" clip-path="url(#p1fe09f9229)" style="fill: none; stroke: #1f77b4; stroke-width: 1.5; stroke-linecap: square"/>
   </g>
   <g id="line2d_56">
    <path d="M 420.325483 199.920826 
L 426.09763 122.986699 
L 431.869777 150.537434 
L 437.641924 114.019715 
L 443.414071 137.628442 
L 449.186218 195.112443 
L 454.958365 198.318032 
L 460.730512 128.57482 
L 466.502659 159.504418 
L 472.274806 151.836997 
L 478.046953 118.264954 
L 483.8191 180.687295 
L 489.591247 199.920826 
L 495.363394 199.920826 
L 501.135541 156.64538 
L 506.907688 199.920826 
L 512.679835 199.920826 
L 518.451982 199.920826 
L 524.224129 178.521356 
L 529.996276 155.649048 
L 535.768423 166.262146 
L 541.54057 166.262146 
L 547.312717 199.920826 
L 553.084864 199.920826 
L 558.857011 194.592618 
L 564.629158 182.203451 
L 570.401305 181.596989 
L 576.173452 199.920826 
L 581.945599 195.112443 
L 587.717746 195.112443 
L 593.489893 185.495677 
L 599.26204 199.920826 
L 605.034187 190.30406 
L 610.806334 195.762225 
L 616.578481 187.531659 
L 622.350628 199.704232 
L 628.122775 199.920826 
L 633.894922 175.878912 
L 639.667069 97.645222 
L 645.439216 84.519636 
L 651.211363 129.26792 
L 656.98351 107.825131 
L 662.755657 138.624773 
L 668.527804 85.819199 
L 674.299951 142.220231 
L 680.072098 96.518934 
L 685.844245 81.747235 
L 691.616392 87.335355 
" clip-path="url(#p1fe09f9229)" style="fill: none; stroke: #ff7f0e; stroke-width: 1.5; stroke-linecap: square"/>
   </g>
   <g id="patch_9">
    <path d="M 406.760937 242.44 
L 406.760937 7.2 
" style="fill: none; stroke: #000000; stroke-width: 0.8; stroke-linejoin: miter; stroke-linecap: square"/>
   </g>
   <g id="patch_10">
    <path d="M 705.180938 242.44 
L 705.180938 7.2 
" style="fill: none; stroke: #000000; stroke-width: 0.8; stroke-linejoin: miter; stroke-linecap: square"/>
   </g>
   <g id="patch_11">
    <path d="M 406.760937 242.44 
L 705.180938 242.44 
" style="fill: none; stroke: #000000; stroke-width: 0.8; stroke-linejoin: miter; stroke-linecap: square"/>
   </g>
   <g id="patch_12">
    <path d="M 406.760937 7.2 
L 705.180938 7.2 
" style="fill: none; stroke: #000000; stroke-width: 0.8; stroke-linejoin: miter; stroke-linecap: square"/>
   </g>
   <g id="legend_2">
    <g id="patch_13">
     <path d="M 498.856875 44.55625 
L 613.085 44.55625 
Q 615.085 44.55625 615.085 42.55625 
L 615.085 14.2 
Q 615.085 12.2 613.085 12.2 
L 498.856875 12.2 
Q 496.856875 12.2 496.856875 14.2 
L 496.856875 42.55625 
Q 496.856875 44.55625 498.856875 44.55625 
z
" style="fill: #ffffff; opacity: 0.8; stroke: #cccccc; stroke-linejoin: miter"/>
    </g>
    <g id="line2d_57">
     <path d="M 500.856875 20.298438 
L 510.856875 20.298438 
L 520.856875 20.298438 
" style="fill: none; stroke: #1f77b4; stroke-width: 1.5; stroke-linecap: square"/>
    </g>
    <g id="text_32">
     <!-- CES Charging -->
     <g transform="translate(528.856875 23.798438) scale(0.1 -0.1)">
      <use xlink:href="#DejaVuSans-43"/>
      <use xlink:href="#DejaVuSans-45" transform="translate(69.824219 0)"/>
      <use xlink:href="#DejaVuSans-53" transform="translate(133.007812 0)"/>
      <use xlink:href="#DejaVuSans-20" transform="translate(196.484375 0)"/>
      <use xlink:href="#DejaVuSans-43" transform="translate(228.271484 0)"/>
      <use xlink:href="#DejaVuSans-68" transform="translate(298.095703 0)"/>
      <use xlink:href="#DejaVuSans-61" transform="translate(361.474609 0)"/>
      <use xlink:href="#DejaVuSans-72" transform="translate(422.753906 0)"/>
      <use xlink:href="#DejaVuSans-67" transform="translate(462.117188 0)"/>
      <use xlink:href="#DejaVuSans-69" transform="translate(525.59375 0)"/>
      <use xlink:href="#DejaVuSans-6e" transform="translate(553.376953 0)"/>
      <use xlink:href="#DejaVuSans-67" transform="translate(616.755859 0)"/>
     </g>
    </g>
    <g id="line2d_58">
     <path d="M 500.856875 34.976563 
L 510.856875 34.976563 
L 520.856875 34.976563 
" style="fill: none; stroke: #ff7f0e; stroke-width: 1.5; stroke-linecap: square"/>
    </g>
    <g id="text_33">
     <!-- CES Discharging -->
     <g transform="translate(528.856875 38.476563) scale(0.1 -0.1)">
      <use xlink:href="#DejaVuSans-43"/>
      <use xlink:href="#DejaVuSans-45" transform="translate(69.824219 0)"/>
      <use xlink:href="#DejaVuSans-53" transform="translate(133.007812 0)"/>
      <use xlink:href="#DejaVuSans-20" transform="translate(196.484375 0)"/>
      <use xlink:href="#DejaVuSans-44" transform="translate(228.271484 0)"/>
      <use xlink:href="#DejaVuSans-69" transform="translate(305.273438 0)"/>
      <use xlink:href="#DejaVuSans-73" transform="translate(333.056641 0)"/>
      <use xlink:href="#DejaVuSans-63" transform="translate(385.15625 0)"/>
      <use xlink:href="#DejaVuSans-68" transform="translate(440.136719 0)"/>
      <use xlink:href="#DejaVuSans-61" transform="translate(503.515625 0)"/>
      <use xlink:href="#DejaVuSans-72" transform="translate(564.794922 0)"/>
      <use xlink:href="#DejaVuSans-67" transform="translate(604.158203 0)"/>
      <use xlink:href="#DejaVuSans-69" transform="translate(667.634766 0)"/>
      <use xlink:href="#DejaVuSans-6e" transform="translate(695.417969 0)"/>
      <use xlink:href="#DejaVuSans-67" transform="translate(758.796875 0)"/>
     </g>
    </g>
   </g>
  </g>
 </g>
 <defs>
  <clipPath id="p6d20d16f98">
   <rect x="52.160938" y="7.2" width="298.42" height="235.24"/>
  </clipPath>
  <clipPath id="p1fe09f9229">
   <rect x="406.760937" y="7.2" width="298.42" height="235.24"/>
  </clipPath>
 </defs>
</svg>
