<?xml version="1.0" encoding="utf-8" standalone="no"?>
<!DOCTYPE svg PUBLIC "-//W3C//DTD SVG 1.1//EN"
  "http://www.w3.org/Graphics/SVG/1.1/DTD/svg11.dtd">
<svg xmlns:xlink="http://www.w3.org/1999/xlink" width="453.6pt" height="338.4pt" viewBox="0 0 453.6 338.4" xmlns="http://www.w3.org/2000/svg" version="1.1">
 <metadata>
  <rdf:RDF xmlns:dc="http://purl.org/dc/elements/1.1/" xmlns:cc="http://creativecommons.org/ns#" xmlns:rdf="http://www.w3.org/1999/02/22-rdf-syntax-ns#">
   <cc:Work>
    <dc:type rdf:resource="http://purl.org/dc/dcmitype/StillImage"/>
    <dc:date>2026-02-27T10:15:05.801419</dc:date>
    <dc:format>image/svg+xml</dc:format>
    <dc:creator>
     <cc:Agent>
      <dc:title>Matplotlib v3.10.0, https://matplotlib.org/</dc:title>
     </cc:Agent>
    </dc:creator>
   </cc:Work>
  </rdf:RDF>
 </metadata>
 <defs>
  <style type="text/css">*{stroke-linejoin: round; stroke-linecap: butt}</style>
 </defs>
 <g id="figure_1">
  <g id="patch_1">
   <path d="M 0 338.4 
L 453.6 338.4 
L 453.6 0 
L 0 0 
z
" style="fill: #ffffff"/>
  </g>
  <g id="axes_1">
   <g id="patch_2">
    <path d="M 9.2 331.2 
L 446.4 331.2 
L 446.4 7.2 
L 9.2 7.2 
z
" style="fill: #ffffff"/>
   </g>
   <g id="FillBetweenPolyCollection_1">
    <path d="M -1630.3 324914.4 
L -1630.3 24.751898 
L -1521 143.872293 
L -1411.7 165.688778 
L -1302.4 170.335914 
L -1193.1 177.455689 
L -1083.8 248.929645 
L -974.5 257.779119 
L -865.2 266.973214 
L -755.9 284.827769 
L -646.6 299.699584 
L -537.3 318.297931 
L -428 344.44336 
L -318.7 367.822937 
L -209.4 386.709015 
L -100.1 432.751633 
L 9.2 481.007831 
L 118.5 566.298121 
L 227.8 56.899699 
L 337.1 432.751633 
L 446.4 487.553759 
L 555.7 606.778193 
L 665 416.594911 
L 774.3 402.002481 
L 883.6 499.5362 
L 992.9 188.965388 
L 1102.2 210.320338 
L 1211.5 234.651916 
L 1320.8 265.672912 
L 1430.1 295.116288 
L 1539.4 332.612163 
L 1648.7 383.555717 
L 1758 464.480064 
L 1758 324914.4 
L 1758 324914.4 
L 1648.7 324914.4 
L 1539.4 324914.4 
L 1430.1 324914.4 
L 1320.8 324914.4 
L 1211.5 324914.4 
L 1102.2 324914.4 
L 992.9 324914.4 
L 883.6 324914.4 
L 774.3 324914.4 
L 665 324914.4 
L 555.7 324914.4 
L 446.4 324914.4 
L 337.1 324914.4 
L 227.8 324914.4 
L 118.5 324914.4 
L 9.2 324914.4 
L -100.1 324914.4 
L -209.4 324914.4 
L -318.7 324914.4 
L -428 324914.4 
L -537.3 324914.4 
L -646.6 324914.4 
L -755.9 324914.4 
L -865.2 324914.4 
L -974.5 324914.4 
L -1083.8 324914.4 
L -1193.1 324914.4 
L -1302.4 324914.4 
L -1411.7 324914.4 
L -1521 324914.4 
L -1630.3 324914.4 
z
" clip-path="url(#pdd4a176d3e)" style="fill: #7f7f7f; fill-opacity: 0.35; stroke: #7f7f7f; stroke-opacity: 0.35"/>
   </g>
   <g id="matplotlib.axis_1"/>
   <g id="matplotlib.axis_2">
    <g id="ytick_1">
     <g id="line2d_1">
      <path d="M 9.2 316.588235 
L 446.4 316.588235 
" clip-path="url(#pdd4a176d3e)" style="fill: none; stroke-dasharray: 2.59,1.12; stroke-dashoffset: 0; stroke: #b0b0b0; stroke-opacity: 0.6; stroke-width: 0.7"/>
     </g>
     <g id="line2d_2">
      <defs>
       <path id="m9f7a67af26" d="M 0 0 
L -2 0 
" style="stroke: #000000; stroke-width: 0.6"/>
      </defs>
      <g>
       <use xlink:href="#m9f7a67af26" x="9.2" y="316.588235" style="stroke: #000000; stroke-width: 0.6"/>
      </g>
     </g>
    </g>
    <g id="ytick_2">
     <g id="line2d_3">
      <path d="M 9.2 297.798844 
L 446.4 297.798844 
" clip-path="url(#pdd4a176d3e)" style="fill: none; stroke-dasharray: 2.59,1.12; stroke-dashoffset: 0; stroke: #b0b0b0; stroke-opacity: 0.6; stroke-width: 0.7"/>
     </g>
     <g id="line2d_4">
      <g>
       <use xlink:href="#m9f7a67af26" x="9.2" y="297.798844" style="stroke: #000000; stroke-width: 0.6"/>
      </g>
     </g>
    </g>
    <g id="ytick_3">
     <g id="line2d_5">
      <path d="M 9.2 281.225427 
L 446.4 281.225427 
" clip-path="url(#pdd4a176d3e)" style="fill: none; stroke-dasharray: 2.59,1.12; stroke-dashoffset: 0; stroke: #b0b0b0; stroke-opacity: 0.6; stroke-width: 0.7"/>
     </g>
     <g id="line2d_6">
      <g>
       <use xlink:href="#m9f7a67af26" x="9.2" y="281.225427" style="stroke: #000000; stroke-width: 0.6"/>
      </g>
     </g>
    </g>
    <g id="ytick_4">
     <g id="line2d_7">
      <path d="M 9.2 168.866281 
L 446.4 168.866281 
" clip-path="url(#pdd4a176d3e)" style="fill: none; stroke-dasharray: 2.59,1.12; stroke-dashoffset: 0; stroke: #b0b0b0; stroke-opacity: 0.6; stroke-width: 0.7"/>
     </g>
     <g id="line2d_8">
      <g>
       <use xlink:href="#m9f7a67af26" x="9.2" y="168.866281" style="stroke: #000000; stroke-width: 0.6"/>
      </g>
     </g>
    </g>
    <g id="ytick_5">
     <g id="line2d_9">
      <path d="M 9.2 111.812713 
L 446.4 111.812713 
" clip-path="url(#pdd4a176d3e)" style="fill: none; stroke-dasharray: 2.59,1.12; stroke-dashoffset: 0; stroke: #b0b0b0; stroke-opacity: 0.6; stroke-width: 0.7"/>
     </g>
     <g id="line2d_10">
      <g>
       <use xlink:href="#m9f7a67af26" x="9.2" y="111.812713" style="stroke: #000000; stroke-width: 0.6"/>
      </g>
     </g>
    </g>
    <g id="ytick_6">
     <g id="line2d_11">
      <path d="M 9.2 71.332563 
L 446.4 71.332563 
" clip-path="url(#pdd4a176d3e)" style="fill: none; stroke-dasharray: 2.59,1.12; stroke-dashoffset: 0; stroke: #b0b0b0; stroke-opacity: 0.6; stroke-width: 0.7"/>
     </g>
     <g id="line2d_12">
      <g>
       <use xlink:href="#m9f7a67af26" x="9.2" y="71.332563" style="stroke: #000000; stroke-width: 0.6"/>
      </g>
     </g>
    </g>
    <g id="ytick_7">
     <g id="line2d_13">
      <path d="M 9.2 39.933719 
L 446.4 39.933719 
" clip-path="url(#pdd4a176d3e)" style="fill: none; stroke-dasharray: 2.59,1.12; stroke-dashoffset: 0; stroke: #b0b0b0; stroke-opacity: 0.6; stroke-width: 0.7"/>
     </g>
     <g id="line2d_14">
      <g>
       <use xlink:href="#m9f7a67af26" x="9.2" y="39.933719" style="stroke: #000000; stroke-width: 0.6"/>
      </g>
     </g>
    </g>
    <g id="ytick_8">
     <g id="line2d_15">
      <path d="M 9.2 14.278995 
L 446.4 14.278995 
" clip-path="url(#pdd4a176d3e)" style="fill: none; stroke-dasharray: 2.59,1.12; stroke-dashoffset: 0; stroke: #b0b0b0; stroke-opacity: 0.6; stroke-width: 0.7"/>
     </g>
     <g id="line2d_16">
      <g>
       <use xlink:href="#m9f7a67af26" x="9.2" y="14.278995" style="stroke: #000000; stroke-width: 0.6"/>
      </g>
     </g>
    </g>
   </g>
   <g id="line2d_17">
    <path d="M 167.184809 339.4 
L 227.8 56.899699 
L 309.952784 339.4 
" clip-path="url(#pdd4a176d3e)" style="fill: none; stroke: #7f7f7f; stroke-width: 2; stroke-linecap: square"/>
   </g>
   <g id="patch_3">
    <path d="M 9.2 331.2 
L 9.2 7.2 
" style="fill: none; stroke: #000000; stroke-width: 0.8; stroke-linejoin: miter; stroke-linecap: square"/>
   </g>
   <g id="patch_4">
    <path d="M 446.4 331.2 
L 446.4 7.2 
" style="fill: none; stroke: #000000; stroke-width: 0.8; stroke-linejoin: miter; stroke-linecap: square"/>
   </g>
   <g id="patch_5">
    <path d="M 9.2 331.2 
L 446.4 331.2 
" style="fill: none; stroke: #000000; stroke-width: 0.8; stroke-linejoin: miter; stroke-linecap: square"/>
   </g>
   <g id="patch_6">
    <path d="M 9.2 7.2 
L 446.4 7.2 
" style="fill: none; stroke: #000000; stroke-width: 0.8; stroke-linejoin: miter; stroke-linecap: square"/>
   </g>
   <g id="FillBetweenPolyCollection_2">
    <path d="M -1630.3 324914.4 
L -1630.3 42.804632 
L -1521 121.55222 
L -1411.7 138.622418 
L -1302.4 142.426646 
L -1193.1 148.242632 
L -1083.8 248.929645 
L -974.5 257.779119 
L -865.2 267.179148 
L -755.9 284.833784 
L -646.6 299.699584 
L -537.3 318.297931 
L -428 344.44336 
L -318.7 367.822937 
L -209.4 388.401647 
L -100.1 434.444264 
L 9.2 482.700476 
L 118.5 567.990756 
L 227.8 86.15799 
L 337.1 434.444264 
L 446.4 489.246377 
L 555.7 608.470946 
L 665 416.594911 
L 774.3 402.002481 
L 883.6 499.5362 
L 992.9 163.01704 
L 1102.2 180.584802 
L 1211.5 200.020246 
L 1320.8 223.710894 
L 1430.1 244.617277 
L 1539.4 269.643214 
L 1648.7 299.530622 
L 1758 338.278995 
L 1758 324914.4 
L 1758 324914.4 
L 1648.7 324914.4 
L 1539.4 324914.4 
L 1430.1 324914.4 
L 1320.8 324914.4 
L 1211.5 324914.4 
L 1102.2 324914.4 
L 992.9 324914.4 
L 883.6 324914.4 
L 774.3 324914.4 
L 665 324914.4 
L 555.7 324914.4 
L 446.4 324914.4 
L 337.1 324914.4 
L 227.8 324914.4 
L 118.5 324914.4 
L 9.2 324914.4 
L -100.1 324914.4 
L -209.4 324914.4 
L -318.7 324914.4 
L -428 324914.4 
L -537.3 324914.4 
L -646.6 324914.4 
L -755.9 324914.4 
L -865.2 324914.4 
L -974.5 324914.4 
L -1083.8 324914.4 
L -1193.1 324914.4 
L -1302.4 324914.4 
L -1411.7 324914.4 
L -1521 324914.4 
L -1630.3 324914.4 
z
" clip-path="url(#pdd4a176d3e)" style="fill: #2ca02c; fill-opacity: 0.35; stroke: #2ca02c; stroke-opacity: 0.35"/>
   </g>
   <g id="line2d_18">
    <path d="M 170.354028 339.4 
L 227.8 86.15799 
L 307.27299 339.4 
" clip-path="url(#pdd4a176d3e)" style="fill: none; stroke: #2ca02c; stroke-width: 2; stroke-linecap: square"/>
   </g>
   <g id="FillBetweenPolyCollection_3">
    <path d="M -1630.3 324914.4 
L -1630.3 45.893883 
L -1521 116.777544 
L -1411.7 134.520237 
L -1302.4 138.231737 
L -1193.1 143.869536 
L -1083.8 248.929645 
L -974.5 257.779119 
L -865.2 267.179148 
L -755.9 284.833784 
L -646.6 299.699584 
L -537.3 318.297931 
L -428 344.44336 
L -318.7 367.822937 
L -209.4 388.401647 
L -100.1 434.444264 
L 9.2 482.700476 
L 118.5 567.990756 
L 227.8 86.15799 
L 337.1 434.444264 
L 446.4 489.246377 
L 555.7 608.470946 
L 665 416.594911 
L 774.3 402.002481 
L 883.6 499.5362 
L 992.9 162.695907 
L 1102.2 180.177447 
L 1211.5 199.478177 
L 1320.8 223.025036 
L 1430.1 244.155762 
L 1539.4 269.167563 
L 1648.7 299.436918 
L 1758 338.278995 
L 1758 324914.4 
L 1758 324914.4 
L 1648.7 324914.4 
L 1539.4 324914.4 
L 1430.1 324914.4 
L 1320.8 324914.4 
L 1211.5 324914.4 
L 1102.2 324914.4 
L 992.9 324914.4 
L 883.6 324914.4 
L 774.3 324914.4 
L 665 324914.4 
L 555.7 324914.4 
L 446.4 324914.4 
L 337.1 324914.4 
L 227.8 324914.4 
L 118.5 324914.4 
L 9.2 324914.4 
L -100.1 324914.4 
L -209.4 324914.4 
L -318.7 324914.4 
L -428 324914.4 
L -537.3 324914.4 
L -646.6 324914.4 
L -755.9 324914.4 
L -865.2 324914.4 
L -974.5 324914.4 
L -1083.8 324914.4 
L -1193.1 324914.4 
L -1302.4 324914.4 
L -1411.7 324914.4 
L -1521 324914.4 
L -1630.3 324914.4 
z
" clip-path="url(#pdd4a176d3e)" style="fill: #17becf; fill-opacity: 0.35; stroke: #17becf; stroke-opacity: 0.35"/>
   </g>
   <g id="line2d_19">
    <path d="M 170.354028 339.4 
L 227.8 86.15799 
L 307.27299 339.4 
" clip-path="url(#pdd4a176d3e)" style="fill: none; stroke: #17becf; stroke-width: 2; stroke-linecap: square"/>
   </g>
   <g id="line2d_20">
    <path d="M -1 204.928098 
L 9.2 209.346432 
L 118.5 281.225427 
L 227.8 86.15799 
L 337.1 126.63814 
L 446.4 183.691708 
L 454.6 191.008968 
" clip-path="url(#pdd4a176d3e)" style="fill: none; stroke: #d62728; stroke-width: 2.8; stroke-linecap: square"/>
   </g>
  </g>
 </g>
 <defs>
  <clipPath id="pdd4a176d3e">
   <rect x="9.2" y="7.2" width="437.2" height="324"/>
  </clipPath>
 </defs>
</svg>
